<?xml version="1.0" standalone="no"?>
<!DOCTYPE svg PUBLIC "-//W3C//DTD SVG 20010904//EN"
 "http://www.w3.org/TR/2001/REC-SVG-20010904/DTD/svg10.dtd">
<svg version="1.0" xmlns="http://www.w3.org/2000/svg"
 width="192.000000pt" height="192.000000pt" viewBox="0 0 192.000000 192.000000"
 preserveAspectRatio="xMidYMid meet">
<metadata>
Created by potrace 1.10, written by Peter Selinger 2001-2011
</metadata>
<g transform="translate(0.000000,192.000000) scale(0.100000,-0.100000)"
fill="#000000" stroke="none">
<path d="M584 1175 c-12 -18 -16 -48 -15 -122 0 -121 -4 -130 -53 -112 -32 12
-39 11 -63 -7 -62 -45 -99 -253 -57 -312 41 -55 142 -79 222 -51 50 17 58 52
72 315 12 205 7 253 -26 289 -29 32 -59 32 -80 0z m74 -25 c10 -20 12 -67 8
-215 -6 -206 -19 -312 -41 -334 -8 -8 -41 -17 -73 -19 -135 -10 -178 62 -137
223 25 94 78 148 112 114 6 -6 21 -9 34 -7 23 3 24 6 29 118 3 63 9 123 14
133 11 24 37 18 54 -13z"/>
<path d="M165 1004 c-56 -20 -83 -49 -121 -129 -48 -98 -48 -163 -1 -210 41
-41 90 -52 140 -31 21 8 37 11 37 5 0 -6 20 -9 48 -7 l47 3 23 85 c29 112 39
224 22 245 -7 9 -23 15 -35 13 -11 -1 -34 7 -49 20 -33 25 -55 27 -111 6z
m111 -26 c16 -13 38 -21 53 -19 24 3 24 3 18 -68 -8 -102 -45 -229 -69 -242
-27 -15 -32 -6 -19 32 15 45 6 48 -32 12 -58 -55 -95 -65 -146 -39 -58 30 -66
109 -22 201 33 70 68 110 113 130 46 20 71 18 104 -7z"/>
<path d="M878 980 c-84 -25 -160 -128 -173 -235 -11 -92 56 -164 140 -150 22
4 68 6 101 5 l61 -1 21 78 c23 87 42 185 42 219 0 30 -27 56 -54 52 -12 -1
-35 7 -50 20 -30 23 -44 25 -88 12z m93 -34 c18 -15 36 -22 49 -19 30 8 33
-14 16 -114 -24 -133 -43 -190 -66 -196 -27 -7 -33 6 -19 37 19 40 4 41 -35 2
-62 -62 -136 -59 -176 6 -25 41 -25 64 0 132 29 77 74 134 123 157 55 25 73
24 108 -5z"/>
<path d="M1481 974 c-22 -16 -23 -22 -17 -77 3 -32 1 -113 -5 -179 -10 -109
-9 -121 7 -139 20 -22 66 -25 83 -5 6 7 20 60 31 116 25 130 28 140 46 140 17
0 19 -50 4 -136 -23 -132 -24 -122 9 -139 29 -14 31 -14 45 8 9 12 27 62 41
110 37 128 51 157 74 157 22 0 22 4 -5 -164 -16 -96 -13 -106 32 -106 41 0 82
138 86 296 3 83 2 87 -25 110 -41 35 -81 30 -134 -18 -22 -20 -22 -20 -49 1
-31 25 -58 26 -97 6 -25 -13 -29 -12 -52 11 -28 28 -42 30 -74 8z m69 -55 c0
-47 7 -48 41 -10 27 31 68 47 93 38 7 -3 16 -19 19 -36 8 -37 19 -39 40 -7 9
13 32 34 52 46 45 28 82 21 91 -16 17 -67 -22 -314 -55 -347 -22 -22 -24 5 -7
109 10 58 15 117 12 130 -6 22 -11 25 -44 22 l-37 -3 -31 -95 c-18 -52 -37
-114 -43 -137 -8 -28 -17 -43 -28 -43 -13 0 -14 8 -9 43 3 23 9 80 12 127 6
74 4 88 -11 103 -15 16 -20 16 -39 4 -16 -11 -27 -40 -46 -128 -28 -127 -33
-139 -60 -139 -26 0 -30 20 -20 92 5 34 10 111 10 170 0 90 3 109 17 116 28
16 43 3 43 -39z"/>
<path d="M1209 947 c-95 -50 -158 -221 -114 -307 27 -52 114 -77 168 -49 16 9
22 9 25 0 2 -6 23 -11 47 -11 43 0 44 0 59 48 21 67 46 194 46 240 0 45 -14
62 -50 62 -15 0 -35 9 -45 20 -25 27 -81 26 -136 -3z m137 -18 c12 -13 27 -19
42 -16 33 6 37 -13 24 -107 -19 -128 -44 -200 -70 -204 -24 -4 -27 4 -12 42
12 33 -9 36 -28 5 -18 -29 -95 -61 -127 -53 -40 10 -75 59 -75 104 0 86 69
208 134 236 46 20 90 17 112 -7z"/>
</g>
</svg>
